<svg xmlns="http://www.w3.org/2000/svg" height="124.253" width="240.172"><path d="M204.553 61.011a1.831 1.831 0 00.234 1.879h3.29a1.829 1.829 0 00.234-1.878c-.358-.979-1.183-1.745-1.879-1.745s-1.521.762-1.879 1.744zM204.699 72.015a16.5 16.5 0 00-1.619 4.936c-.779 3.663-1.709 10.606-1.709 22.881 0 2.836 3.328 4.908 5.061 4.908s5.061-2.072 5.061-4.908c0-21.371-2.742-26.888-3.325-27.817z" fill="#fdbe2a"/><path d="M204.031 73.493a5.1 5.1 0 014.847.1 8.272 8.272 0 00-.71-1.579h-3.469a8.373 8.373 0 00-.668 1.479zM201.524 93.21c-.1 2.406-.153 3.6-.153 6.622 0 2.836 3.328 4.908 5.061 4.908s5.061-2.072 5.061-4.908c0-3.02-.056-4.211-.152-6.629-.608 3.705-1.949 5.645-4.909 5.645s-4.3-1.934-4.908-5.638z" fill="#e8a91b"/><path d="M170.988 49.929c-6.01-3.486-27.6-8.529-50.9-8.529s-44.893 5.043-50.9 8.529c-2.256 1.308-5.834 7.962-10.071 32.235-1.921 11-3.284 21.776-3.847 26.484 6.264-6.124 35.981-9.707 64.821-9.707s58.553 3.582 64.819 9.706c-1.316-10.946-6.967-54.687-13.922-58.718z" fill="#85c3e9"/><path d="M177.763 65.983c-2-8.191-4.307-14.624-6.775-16.055-6.01-3.486-27.6-8.529-50.9-8.529s-44.893 5.043-50.9 8.529c-1.64.951-3.979 4.735-6.762 16.052 0 0 15.8-11.608 57.665-11.608s57.672 11.611 57.672 11.611z" fill="#70b1de"/><path d="M120.086 99.86c-38.072 0-63.923 5.539-65.061 10.844l-.043.38c.05 5.408 26.2 11.192 65.1 11.192s65.053-5.784 65.1-11.192l-.043-.381c-1.135-5.305-26.984-10.843-65.053-10.843z" fill="#4495d7"/><path d="M204.917 66.476v4.619h3.029V63.812h-3.029z" fill="#e8a91b"/><path d="M206.048 66.476v4.619h.767V63.812h-.767z" fill="#fdcb55"/><path d="M205.237 32.783c.311.055.734.133.944 4.212a.455.455 0 010 .082c.174 3.472.2 9.789-.125 21.308a1.869 1.869 0 01.911.039c.014-2.246.084-13.951.061-20.636a291.65 291.65 0 00-.026-3.268c-.009-.6-.022-1.029-.037-1.251a.657.657 0 00-.3-.565 3.671 3.671 0 00-2.372-.009l.5.209a.531.531 0 01.444-.121z" fill="#fdbe2a"/><path d="M238.195 51.52a.7.7 0 01-.008.1.78.78 0 01-.33.435.138.138 0 01-.024.012l-28.967 12.075v-.74a2.7 2.7 0 00.309-2.7 4.141 4.141 0 00-1.3-1.808.515.515 0 00.016-.078c0-.7.084-12.973.066-20.332l29.879 12.5a.577.577 0 01.359.536zm-34.2 11.876a2.7 2.7 0 01-.308-2.7 4.082 4.082 0 011.439-1.91c.334-11.772.3-18.063.16-21.424L121.368 2.254a3.355 3.355 0 00-2.569 0L2.336 50.979a.576.576 0 00-.361.542.7.7 0 00.008.1.775.775 0 00.329.435.184.184 0 00.024.012l56.805 23.678a.45.45 0 01.182.149c2.492-12.778 5.727-24.63 9.4-26.757 6.1-3.537 27.9-8.653 51.364-8.653s45.266 5.116 51.364 8.653c3.67 2.127 6.905 13.979 9.4 26.756a.448.448 0 01.182-.148l22.968-9.574z" fill="#70b1de"/><path d="M208.079 62.89a1.753 1.753 0 00.278-1.744s.051 1.009-1.923 1.009-1.956-.885-1.956-.885a1.685 1.685 0 00.311 1.62z" fill="#e8a91b"/><g fill="none" stroke="#3e4147" stroke-linecap="round" stroke-linejoin="round" stroke-width="3.034" transform="translate(-3570.821 -4191.271)"><ellipse cx="3690.907" cy="4302.339" rx="65.565" ry="11.668"/><path d="M3756.472 4302.339s-6.224-56.779-14.432-61.538c-6.35-3.683-28.435-8.591-51.133-8.591s-44.784 4.908-51.134 8.591c-8.208 4.759-14.431 61.538-14.431 61.538"/><path d="M3776.552 4228.319l-84.183-35.219a3.781 3.781 0 00-2.924 0l-116.464 48.724a1.048 1.048 0 000 1.934l56.805 23.678M3779.227 4256.1l29.6-12.34a1.048 1.048 0 000-1.934l-30.52-12.768M3752.027 4267.436l23.251-9.692"/><path d="M3773.754 4226.074s3.346-1.644 3.5.616 0 23.388 0 23.388M3779.093 4254.621c1.659-1.4-.124-4.543-1.84-4.543s-3.5 3.144-1.841 4.543M3777.253 4262.826h1.975v-8.205h-3.949v8.205zM3779.227 4262.826s3.547 4.041 3.547 28.277c0 3.068-3.547 5.368-5.521 5.368s-5.521-2.3-5.521-5.368c0-24.236 3.546-28.277 3.546-28.277"/></g></svg>
